<?xml version="1.0" encoding="UTF-8" standalone="no"?>
<svg width="21" height="21" viewBox="0 -100 21 21" version="1.1" xmlns="http://www.w3.org/2000/svg">
    <g transform="translate(1.5, 1.5)" fill="currentColor">
        <path d="M14.573,4.036c-2.878,-2.388 -5.978,-1.047 -8.048,-1.755c-1.552,-0.531 0.25,-3.248 4.672,-1.917c2.932,0.882 3.661,3.188 5.292,3.52c0.879,0.179 2.082,-0.06 2.283,1.63c0.215,1.81 0.55,3.11 -1.033,3.293c-0.247,0.029 -2.017,-0.169 -2.672,-0.391c-0.546,2.411 0.071,2.605 -0.998,4.286c-1.001,1.573 -1.704,1.997 -3.307,2.606c1.606,1.473 2.454,1.791 2.706,4.116c0.027,0.25 -0.011,1.783 -1.354,0.172c-1.381,-1.657 -2.086,-3.027 -4.661,-3.034c-0.114,-0 -1.924,0.255 -1.71,-0.632c0.212,-0.881 4.313,-1.049 0.477,-2.821c-1.213,-0.561 -1.74,-0.697 -3.353,-1.773c-0.965,-0.644 -2.894,0.608 -2.868,-0.767c0.012,-0.637 0.969,-2.053 2.414,-0.833c0.309,0.261 0.301,0.253 0.637,0.486c0.663,-1.464 -0.088,-4.223 4.309,-4.939c2.476,-0.403 3.336,0.34 4.534,0.538c1.255,0.207 2.679,-1.785 2.679,-1.785Z" />
        
        <g stroke="currentColor" fill="none" stroke-linecap="round">
            <path d="M4.372,4.767c-0.565,-0.021 -0.903,0.139 -2.064,-0.35" stroke-width="0.5"/>
            <path d="M4.372,3.767c-0.565,-0.021 -0.903,0.139 -2.064,-0.35" stroke-width="0.4"/>
            <path d="M10.916,15.165c0.328,-1.864 1.822,-6.885 -1.874,-6.762" stroke-width="0.4" opacity="0.6"/>
        </g>
        <circle cx="17.132" cy="5.688" r="0.4" opacity="0.6"/>
    </g>
</svg>
