<?xml version="1.0" encoding="UTF-8" standalone="no"?>
<!DOCTYPE svg PUBLIC "-//W3C//DTD SVG 1.1//EN" "http://www.w3.org/Graphics/SVG/1.1/DTD/svg11.dtd">
<svg width="100%" height="100%" viewBox="0 0 38 21" version="1.1" xmlns="http://www.w3.org/2000/svg" xmlns:xlink="http://www.w3.org/1999/xlink" xml:space="preserve" xmlns:serif="http://www.serif.com/" style="fill-rule:evenodd;clip-rule:evenodd;stroke-linejoin:round;stroke-miterlimit:2;">
    <g>
        <path d="M20.891,15.772c-5.882,-5.539 -13.465,-6.074 -14.1,-6.183c2.975,0.985 9.616,3.943 13.382,9.137c0.015,0.02 0.029,0.04 0.042,0.059c-4.911,3.463 -10.814,0.911 -13.597,-2.186c-2.649,-2.947 -5.477,-6.727 -6.619,-10.124c2.726,-0.482 10.954,-0.423 14.44,0.908c5.716,2.182 6.196,6.408 6.452,8.388Z" style="fill:white;"/>
        <path d="M22.816,19.237c0.061,-0.103 0,0 0,0c-0.189,-1.239 -0.271,-4.159 3.476,-7.606c3.509,-3.228 7.225,-4.542 8.878,-6.385c-0.212,0.188 -2.047,1.339 -2.047,1.339c0,0 -12.824,5.46 -12.919,12.203c-5.978,-1.892 -3.508,-8.901 1.977,-11.705c5.409,-2.765 12.264,-2.953 15.27,-7.082c0,0 0.798,5.775 0.344,8.017c-1.125,5.553 -7.203,11.686 -14.979,11.219Z" style="fill:white;"/>
    </g>
</svg>
