<?xml version="1.0" encoding="UTF-8" standalone="no"?>
<!DOCTYPE svg PUBLIC "-//W3C//DTD SVG 1.1//EN" "http://www.w3.org/Graphics/SVG/1.1/DTD/svg11.dtd">
<svg width="100%" height="100%" viewBox="0 0 45 20" version="1.1" xmlns="http://www.w3.org/2000/svg" xmlns:xlink="http://www.w3.org/1999/xlink" xml:space="preserve" xmlns:serif="http://www.serif.com/" style="fill-rule:evenodd;clip-rule:evenodd;stroke-linejoin:round;stroke-miterlimit:2;">
    <g>
        <g>
            <g>
                <path d="M44.228,0.207l0,0.456c0,0.092 -0.074,0.166 -0.166,0.166l-13.619,0c-0.092,0 -0.166,-0.074 -0.166,-0.166l0,-0.456c0,-0.114 0.093,-0.207 0.207,-0.207l13.536,0c0.114,0 0.207,0.093 0.207,0.207Z" style="fill:white;"/>
                <path d="M43.879,1.103c0,0.843 -0.684,1.527 -1.527,1.527l-10.169,0c-0.803,0 -1.454,-0.652 -1.454,-1.454l0,-0.073c0,-0.04 0.033,-0.073 0.073,-0.073l13.005,0c0.04,0 0.073,0.033 0.073,0.073Z" style="fill:white;"/>
            </g>
            <path d="M37.883,2.63l0,1.542c0,0.347 -0.282,0.629 -0.629,0.629c-0.347,0 -0.629,-0.282 -0.629,-0.629l0,-1.542l1.259,0Z" style="fill:white;"/>
        </g>
        <g>
            <g>
                <path d="M13.951,0.207l0,0.456c0,0.092 -0.074,0.166 -0.166,0.166l-13.619,0c-0.092,0 -0.166,-0.074 -0.166,-0.166l0,-0.456c0,-0.114 0.093,-0.207 0.207,-0.207l13.536,0c0.114,0 0.207,0.093 0.207,0.207Z" style="fill:white;"/>
                <path d="M13.601,1.103c0,0.843 -0.684,1.527 -1.527,1.527l-10.169,0c-0.803,0 -1.454,-0.652 -1.454,-1.454l0,-0.073c0,-0.04 0.033,-0.073 0.073,-0.073l13.005,0c0.04,0 0.073,0.033 0.073,0.073Z" style="fill:white;"/>
            </g>
            <path d="M7.605,2.63l0,1.542c0,0.347 -0.282,0.629 -0.629,0.629c-0.347,0 -0.629,-0.282 -0.629,-0.629l0,-1.542l1.259,0Z" style="fill:white;"/>
        </g>
        <path d="M25.111,5.762l0,10.901l-5.994,0l0,-10.901c0,-1.654 1.343,-2.997 2.997,-2.997c1.654,0 2.997,1.343 2.997,2.997Z" style="fill:white;"/>
        <path d="M21.881,8.266l-15.296,-4.104l15.763,1.532l-0.467,2.572Z" style="fill:white;"/>
        <path d="M21.881,5.694l15.763,-1.532l-15.296,4.104l-0.467,-2.572Z" style="fill:white;"/>
        <path d="M29.737,18.102l0,0.663c0,0.458 -0.372,0.829 -0.829,0.829l-13.588,0c-0.458,0 -0.829,-0.372 -0.829,-0.829l0,-0.663c0,-0.092 0.074,-0.166 0.166,-0.166l14.915,0c0.092,0 0.166,0.074 0.166,0.166Z" style="fill:white;"/>
        <path d="M29.737,16.057l-15.246,0c0.822,-3.778 5.345,-0.98 7.623,-5.528c2.278,4.548 6.802,1.749 7.623,5.528" style="fill:white;"/>
        <rect x="14.491" y="16.057" width="15.246" height="1.436" style="fill:white;"/>
    </g>
</svg>
